Patient4_TMGait_0pt7_01_left_03_GRF.mot
version=1
nRows=65
nColumns=19
inDegrees=no
endheader
time	F1x	F1y	F1z	M1x	M1y	M1z	F2x	F2y	F2z	M2x	M2y	M2z	EC1x	EC1y	EC1z	EC2x	EC2y	EC2z
3.45	15.8108	3.3759	10.0758	-3.1193	-3.6556	0.55412	-23.1894	766.748	-43.4561	241.0802	53.9064	738.0871	-0.0592	0.0182	-0.0073	-0.0462	0.0165	0.9585
3.4619	10.5968	3.2746	6.7286	-2.5403	-2.4215	1.4615	-21.0571	763.3224	-48.8143	241.6205	56.2146	730.2793	-0.0592	0.0182	-0.0073	-0.0462	0.0165	0.9585
3.4739	6.2141	3.2568	3.9191	-2.0651	-1.3946	2.3057	-18.9577	762.0089	-53.5185	242.4439	58.1674	724.1387	-0.0592	0.0182	-0.0073	-0.0462	0.0165	0.9585
3.4858	2.8772	3.3214	1.7867	-1.7214	-0.62193	3.0374	-16.9372	762.6883	-57.363	243.4374	59.6674	719.7325	-0.0592	0.0182	-0.0073	-0.0462	0.0165	0.9585
3.4977	0.57543	3.4366	0.32658	-1.5008	-0.10524	3.6027	-14.9875	764.6551	-60.3464	244.3995	60.7048	716.519	-0.0592	0.0182	-0.0073	-0.0462	0.0165	0.9585
3.5096	-0.8679	3.5835	-0.56147	-1.3807	0.18702	4.0131	-13.0408	766.9219	-62.5612	245.09	61.3009	713.6328	-0.0592	0.0182	-0.0073	-0.0462	0.0165	0.9585
3.5216	-1.6557	3.701	-1.0012	-1.3207	0.29643	4.2516	-11.0552	768.4727	-64.1046	245.2786	61.4754	710.1786	-0.0592	0.0182	-0.0073	-0.0462	0.0165	0.9585
3.5335	-2.016	3.7223	-1.1201	-1.2747	0.26188	4.3014	-8.9878	768.4606	-65.0696	244.7894	61.2458	705.3956	-0.0592	0.0182	-0.0073	-0.0462	0.0165	0.9585
3.5454	-2.1262	3.5667	-1.0328	-1.1928	0.12382	4.1019	-6.8044	766.3223	-65.5407	243.5252	60.6322	698.7729	-0.0592	0.0182	-0.0073	-0.0462	0.0165	0.9585
3.5574	-2.131	3.133	-0.82097	-1.0199	-0.093832	3.575	-4.4767	761.8048	-65.6077	241.4719	59.6726	690.0717	-0.0592	0.0182	-0.0073	-0.0462	0.0165	0.9585
3.5693	-2.1191	2.3218	-0.56198	-0.70589	-0.35134	2.631	-1.9763	754.9772	-65.37	238.6998	58.4293	679.3498	-0.0592	0.0182	-0.0073	-0.0462	0.0165	0.9585
3.5812	-2.1263	1.03	-0.29386	-0.2015	-0.62629	1.1772	0.68834	746.1302	-64.9118	235.3373	56.9662	666.8477	-0.0592	0.0182	-0.0073	-0.0462	0.0165	0.9585
3.5931	-2.1379	-0.79412	-0.07097	0.5188	-0.86158	-0.83329	3.5098	735.7203	-64.3166	231.5543	55.3514	652.9457	-0.0592	0.0182	-0.0073	-0.0462	0.0165	0.9585
3.6051	-2.0802	-3.1262	0.087071	1.4463	-1.0084	-3.3768	6.488	724.3065	-63.6472	227.5451	53.6343	638.1175	-0.0592	0.0182	-0.0073	-0.0462	0.0165	0.9585
3.617	-1.8507	-5.7692	0.12882	2.4989	-0.96715	-6.2322	9.6225	712.5043	-62.982	223.5143	51.8753	622.8652	-0.0592	0.0182	-0.0073	-0.0462	0.0165	0.9585
3.6289	-1.2703	-8.2926	0.020711	3.497	-0.62451	-8.9542	12.9079	701.0127	-62.4029	219.6811	50.1347	607.7785	-0.0592	0.0182	-0.0073	-0.0462	0.0165	0.9585
3.6409	-0.15376	-9.9242	-0.3024	4.121	0.17397	-10.7226	16.335	690.5026	-62.0058	216.2457	48.4811	593.4259	-0.0592	0.0182	-0.0073	-0.0462	0.0165	0.9585
3.6528	1.7394	-9.4867	-0.88996	3.8825	1.5854	-10.3015	19.8578	681.5897	-61.8632	213.3816	46.9751	580.363	-0.0592	0.0182	-0.0073	-0.0462	0.0165	0.9585
3.6647	4.5898	-5.328	-1.7957	2.1005	3.7476	-5.9195	23.4276	674.7568	-62.0144	211.212	45.6563	569.0449	-0.0592	0.0182	-0.0073	-0.0462	0.0165	0.9585
3.6766	8.513	4.6232	-3.0476	-2.0771	6.7309	4.6147	26.9211	670.2555	-62.4339	209.7811	44.5345	559.7699	-0.0592	0.0182	-0.0073	-0.0462	0.0165	0.9585
3.6886	13.3861	22.7226	-4.6149	-9.611	10.446	23.8424	30.2091	667.9672	-63.0427	209.0133	43.5902	552.5456	-0.0592	0.0182	-0.0073	-0.0462	0.0165	0.9585
3.7005	18.7729	51.2054	-6.373	-21.405	14.565	54.1668	33.1109	667.2939	-63.6891	208.6859	42.7659	547.0153	-0.0592	0.0182	-0.0073	-0.0462	0.0165	0.9585
3.7124	23.6593	91.5395	-8.0115	-38.0282	18.3374	97.2133	35.484	667.0298	-64.166	208.3969	41.9608	542.3162	-0.0592	0.0182	-0.0073	-0.0462	0.0165	0.9585
3.7244	26.3704	143.3395	-9.0047	-59.2798	20.504	152.6191	37.205	665.3949	-64.2125	207.5838	41.0299	537.1202	-0.0592	0.0182	-0.0073	-0.0462	0.0165	0.9585
3.7363	24.6202	203.3091	-8.5176	-83.7464	19.2612	216.9668	38.2645	660.1994	-63.5341	205.5866	39.7707	529.7235	-0.0592	0.0182	-0.0073	-0.0462	0.0165	0.9585
3.7482	17.3585	265.6085	-5.5489	-108.976	13.1493	284.0696	38.7509	649.3515	-61.8474	201.8035	37.9625	518.4509	-0.0592	0.0182	-0.0073	-0.0462	0.0165	0.9585
3.7601	6.185	323.7944	0.39432	-132.3162	2.3113	346.858	38.8353	631.3399	-58.9413	195.8237	35.4133	502.0345	-0.0592	0.0182	-0.0073	-0.0462	0.0165	0.9585
3.7721	-6.6173	372.7251	8.7281	-151.7725	-11.6469	399.4198	38.6954	605.3443	-54.8142	187.4429	32.0804	479.7325	-0.0592	0.0182	-0.0073	-0.0462	0.0165	0.9585
3.784	-19.2727	412.4741	18.1753	-167.4386	-26.5963	441.4785	38.4567	571.2128	-49.6593	176.6415	28.0697	451.3358	-0.0592	0.0182	-0.0073	-0.0462	0.0165	0.9585
3.7959	-30.735	446.8153	27.0872	-180.9366	-40.3754	476.8955	38.1244	529.3572	-43.7699	163.5482	23.5859	417.1231	-0.0592	0.0182	-0.0073	-0.0462	0.0165	0.9585
3.8079	-40.2171	479.7441	34.6972	-193.9421	-51.8439	509.8809	37.605	480.5588	-37.4995	148.3883	18.9022	377.6864	-0.0592	0.0182	-0.0073	-0.0462	0.0165	0.9585
3.8198	-47.1891	513.2213	40.1706	-207.2996	-59.9478	542.5307	36.694	426.0006	-31.0786	131.5085	14.2253	333.969	-0.0592	0.0182	-0.0073	-0.0462	0.0165	0.9585
3.8317	-51.3257	546.9785	43.728	-220.894	-64.7942	574.5573	35.1079	367.3219	-24.7232	113.3964	9.7849	287.288	-0.0592	0.0182	-0.0073	-0.0462	0.0165	0.9585
3.8436	-52.6356	579.9402	45.8258	-234.225	-66.9071	604.8652	32.5689	306.6718	-18.6539	94.6929	5.8098	239.3573	-0.0592	0.0182	-0.0073	-0.0462	0.0165	0.9585
3.8556	-51.4131	611.1224	47.2899	-246.8119	-67.3056	632.6202	28.9815	246.5802	-13.1465	76.1591	2.5326	192.1488	-0.0592	0.0182	-0.0073	-0.0462	0.0165	0.9585
3.8675	-48.2887	640.2495	48.7957	-258.4528	-66.9813	657.7225	24.486	189.7676	-8.4577	58.621	0.11016	147.7577	-0.0592	0.0182	-0.0073	-0.0462	0.0165	0.9585
3.8794	-44.075	667.2844	50.8944	-269.0685	-66.8556	680.3582	19.4926	138.7036	-4.7319	42.8447	-1.4502	108.0312	-0.0592	0.0182	-0.0073	-0.0462	0.0165	0.9585
3.8914	-39.5694	692.2198	53.95	-278.6344	-67.6385	700.7259	14.5182	95.2361	-1.9646	29.4112	-2.2814	74.3361	-0.0592	0.0182	-0.0073	-0.0462	0.0165	0.9585
3.9033	-35.4258	715.1575	57.8151	-287.2155	-69.4481	719.036	10.005	60.279	-0.10264	18.6112	-2.5288	47.3018	-0.0592	0.0182	-0.0073	-0.0462	0.0165	0.9585
3.9152	-31.8857	736.09	62.145	-294.8797	-72.0351	735.3484	6.1619	33.9171	0.98076	10.4723	-2.3442	26.954	-0.0592	0.0182	-0.0073	-0.0462	0.0165	0.9585
3.9271	-28.9386	754.883	66.2402	-301.6554	-74.687	749.5263	3.1293	15.545	1.424	4.8043	-1.8714	12.7948	-0.0592	0.0182	-0.0073	-0.0462	0.0165	0.9585
3.9391	-26.4434	770.9279	69.7083	-307.3762	-76.933	760.9193	0.92901	3.9949	1.4137	1.2431	-1.2665	3.9175	-0.0592	0.0182	-0.0073	-0.0462	0.0165	0.9585
3.951	-24.2471	783.3024	72.2284	-311.7254	-78.359	768.6087	-0.49754	-2.2722	1.18	-0.68458	-0.70015	-0.89512	-0.0592	0.0182	-0.0073	-0.0462	0.0165	0.9585
3.9629	-22.0996	791.0233	73.9574	-314.3226	-78.9928	771.6188	-1.308	-4.8125	0.84502	-1.4593	-0.2204	-2.8446	-0.0592	0.0182	-0.0073	-0.0462	0.0165	0.9585
3.9749	-19.8747	793.4097	74.985	-314.8993	-78.8416	769.3088	-1.6642	-5.0177	0.49944	-1.5081	0.14563	-3.0216	-0.0592	0.0182	-0.0073	-0.0462	0.0165	0.9585
3.9868	-17.3726	790.4502	75.4902	-313.4332	-78.002	761.6913	-1.7223	-3.9334	0.18766	-1.1569	0.40448	-2.2177	-0.0592	0.0182	-0.0073	-0.0462	0.0165	0.9585
3.9987	-14.5531	782.7658	75.4918	-310.1501	-76.4697	749.4489	-1.6035	-2.3212	-0.06725	-0.64219	0.56998	-1.016	-0.0592	0.0182	-0.0073	-0.0462	0.0165	0.9585
4.0106	-11.3805	771.4289	75.0377	-305.4483	-74.2913	733.6634	-1.4182	-0.6574	-0.25545	-0.11179	0.66618	0.22204	-0.0592	0.0182	-0.0073	-0.0462	0.0165	0.9585
4.0226	-7.9583	757.7804	74.1979	-299.8183	-71.5789	715.7556	-1.2151	0.80027	-0.39062	0.35485	0.72275	1.3006	-0.0592	0.0182	-0.0073	-0.0462	0.0165	0.9585
4.0345	-4.3923	743.1715	73.093	-293.7572	-68.5101	697.0824	-1.0471	1.9346	-0.47224	0.72316	0.75202	2.1301	-0.0592	0.0182	-0.0073	-0.0462	0.0165	0.9585
4.0464	-0.91532	728.9299	71.9101	-287.7467	-65.359	678.979	-0.9231	2.7563	-0.52385	0.99352	0.77489	2.729	-0.0592	0.0182	-0.0073	-0.0462	0.0165	0.9585
4.0584	2.3658	716.2328	70.7705	-282.2207	-62.3125	662.5554	-0.8404	3.3146	-0.54552	1.1803	0.78595	3.1403	-0.0592	0.0182	-0.0073	-0.0462	0.0165	0.9585
4.0703	5.2921	706.0686	69.8442	-277.5465	-59.6019	648.7437	-0.80292	3.6768	-0.55049	1.3039	0.79271	3.4262	-0.0592	0.0182	-0.0073	-0.0462	0.0165	0.9585
4.0822	7.8274	699.1086	69.2125	-273.9908	-57.331	638.0824	-0.78273	3.9151	-0.53993	1.3882	0.78456	3.6447	-0.0592	0.0182	-0.0073	-0.0462	0.0165	0.9585
4.0941	9.9521	695.683	68.9654	-271.6976	-55.5895	630.8237	-0.80159	4.0758	-0.52813	1.4463	0.77861	3.8441	-0.0592	0.0182	-0.0073	-0.0462	0.0165	0.9585
4.1061	11.7786	695.7359	69.0618	-270.6814	-54.3057	626.7936	-0.83794	4.1718	-0.50856	1.4821	0.77134	4.0015	-0.0592	0.0182	-0.0073	-0.0462	0.0165	0.9585
4.118	13.3913	698.8717	69.4731	-270.8289	-53.4213	625.5595	-0.9172	4.2123	-0.49606	1.4936	0.78689	4.1145	-0.0592	0.0182	-0.0073	-0.0462	0.0165	0.9585
4.1299	14.949	704.4227	70.0912	-271.9287	-52.7884	626.442	-1.0147	4.1343	-0.4883	1.4589	0.82211	4.0819	-0.0592	0.0182	-0.0073	-0.0462	0.0165	0.9585
4.1419	16.5269	711.5888	70.8383	-273.7116	-52.3081	628.6809	-1.1601	3.882	-0.49908	1.3549	0.89678	3.8593	-0.0592	0.0182	-0.0073	-0.0462	0.0165	0.9585
4.1538	18.2224	719.5477	71.5968	-275.8967	-51.8362	631.4777	-1.3116	3.3262	-0.53659	1.1401	1.0032	3.29	-0.0592	0.0182	-0.0073	-0.0462	0.0165	0.9585
4.1657	20.108	727.612	72.3228	-278.2377	-51.3023	634.2015	-1.4839	2.3606	-0.59624	0.777	1.1311	2.2775	-0.0592	0.0182	-0.0073	-0.0462	0.0165	0.9585
4.1776	22.2492	735.2756	72.984	-280.5516	-50.6504	636.377	-1.5978	0.85239	-0.6813	0.2244	1.2572	0.66565	-0.0592	0.0182	-0.0073	-0.0462	0.0165	0.9585
4.1896	24.6422	742.288	73.6038	-282.7389	-49.8941	637.8048	-1.6213	-1.2376	-0.76445	-0.53136	1.3394	-1.5688	-0.0592	0.0182	-0.0073	-0.0462	0.0165	0.9585
4.2015	27.2533	748.5938	74.2007	-284.7662	-49.0527	638.4624	-1.4283	-3.8959	-0.8268	-1.4795	1.3175	-4.4389	-0.0592	0.0182	-0.0073	-0.0462	0.0165	0.9585
4.2134	29.9498	754.1937	74.7853	-286.6136	-48.1709	638.4171	-0.92767	-6.8645	-0.80699	-2.5318	1.0949	-7.6517	-0.0592	0.0182	-0.0073	-0.0462	0.0165	0.9585
